HIERARCHY
ROOT pelvis
{
  OFFSET 0 100 0
  CHANNELS 6 Xposition Yposition Zposition Zrotation Xrotation Yrotation
  JOINT pelvis_right_femur
  {
    OFFSET -10.78128 -3.44521 -0.5502486
    CHANNELS 3 Zrotation Xrotation Yrotation
    JOINT right_femur_tibia
    {
      OFFSET -0.8047443 -44.0398 -0.1307829
      CHANNELS 3 Zrotation Xrotation Yrotation
      JOINT right_tibia_foot
      {
        OFFSET 3.006224 -47.83518 -5
        CHANNELS 3 Zrotation Xrotation Yrotation
        End Site
        {
          OFFSET 0 -5 15
        }
      }
    }
  }
  JOINT pelvis_left_femur
  {
    OFFSET 10.78128 -3.44521 -0.5502486
    CHANNELS 3 Zrotation Xrotation Yrotation
    JOINT left_femur_tibia
    {
      OFFSET 0.8047443 -44.0398 -0.1307829
      CHANNELS 3 Zrotation Xrotation Yrotation
      JOINT left_tibia_foot
      {
        OFFSET -4.370144 -48.10324 -4.275266
        CHANNELS 3 Zrotation Xrotation Yrotation
        End Site
        {
          OFFSET 0 -5 15
        }
      }
    }
  }
  JOINT pelvis_spine1
  {
    OFFSET 0 6.468898 -3.129235
    CHANNELS 3 Zrotation Xrotation Yrotation
    JOINT spine1
    {
      OFFSET 0 23.15396 4.99043
      CHANNELS 3 Zrotation Xrotation Yrotation
      JOINT spine2
      {
        OFFSET 0 20.79997 -5.064912
        CHANNELS 3 Zrotation Xrotation Yrotation
        JOINT neck
        {
          OFFSET 0 14.38658 9.616178
          CHANNELS 3 Zrotation Xrotation Yrotation
          End Site
          {
            OFFSET 0 20 0
          }
        }
      }
      JOINT right_manubrium
      {
        OFFSET -5.722621 16.35077 3.967754
        CHANNELS 3 Zrotation Xrotation Yrotation
        JOINT right_clavicle
        {
          OFFSET -13.16364 1.694482 -4.693211
          CHANNELS 3 Zrotation Xrotation Yrotation
          JOINT right_humerus
          {
            OFFSET -28.5034 -0.3100689 -2.792744
            CHANNELS 3 Zrotation Xrotation Yrotation
            JOINT right_radius
            {
              OFFSET -25.15693 0.02248979 -1.271978
              CHANNELS 3 Zrotation Xrotation Yrotation
              End Site
              {
                OFFSET -15 0 0
              }
            }
          }
        }
      }
      JOINT left_manubrium
      {
        OFFSET 5.722621 16.35077 3.967754
        CHANNELS 3 Zrotation Xrotation Yrotation
        JOINT left_clavicle
        {
          OFFSET 13.16364 1.694482 -4.693211
          CHANNELS 3 Zrotation Xrotation Yrotation
          JOINT left_humerus
          {
            OFFSET 29.39168 -1.063119 -2.237045
            CHANNELS 3 Zrotation Xrotation Yrotation
            JOINT left_radius
            {
              OFFSET 24.59957 -0.9528479 0.9047498
              CHANNELS 3 Zrotation Xrotation Yrotation
              End Site
              {
                OFFSET 15 -0 -0
              }
            }
          }
        }
      }
    }
  }
}
MOTION
Frames: 9
Frame Time: 0.0416666666667
152.9593 106.1366 3165.761 1.472152 -5.18363 -4.383586 -0.5036396 18.66514 4.227587 -0 29.02552 -0 1.778343 -5.983824 -1.588969 -2.235728 -23.56263 -6.422316 -0 19.59522 -0 -5.472519 -8.72765 19.70633 0.540134 -1.363733 6.311278 1.702377 13.31477 -8.407309 0.984249 22.75457 3.031258 -0.2766449 -23.04679 6.113328 -7.523278 -27.63441 12.25971 97.62038 21.26547 -17.50005 -0 0 17.07359 -20.28212 5.699091 5.976119 1.677491 -22.24624 -5.953496 -88.44173 10.76803 25.69344 0 0 -11.26427 12.59341 15.69825 -8.734655
153.6854 106.5412 3172.983 1.912541 -5.755434 -3.94629 -1.144487 15.74365 4.31331 -0 37.71584 -0 1.952378 -0.5313534 -2.445773 -3.648158 -19.64508 -6.970123 -0 20.96998 -0 -4.131316 -9.35707 19.21578 0.3914789 -1.117306 6.311481 1.693123 12.82609 -8.450996 0.7408418 22.97877 3.508635 0.1000893 -23.31795 6.173011 -7.819642 -27.349 12.1233 97.94548 21.8126 -17.81702 -0 0 16.67158 -20.44896 4.678104 5.340987 1.946319 -22.24725 -5.682565 -88.52094 10.85471 25.24577 0 0 -10.69216 12.77937 15.22232 -9.599244
154.4037 107.4536 3179.927 1.976657 -6.55033 -3.174894 -1.018149 10.59365 4.299041 -0 46.06475 -0 2.009 3.364 -3.819761 -4.560805 -14.37756 -7.144457 -0 21.56146 -0 -2.679443 -10.10798 18.68414 0.2064134 -0.8064831 6.280468 1.685036 12.18928 -8.517191 0.4361912 23.25502 4.134195 0.561196 -23.7225 6.296419 -8.229921 -26.94963 11.94943 98.44439 22.48794 -18.29057 -0 0 16.07966 -20.68971 3.396097 4.557768 2.304628 -22.24871 -5.303804 -88.55559 10.97099 24.56776 0 0 -10.14244 13.00172 14.62554 -10.68568
155.0881 108.6065 3186.391 1.740752 -7.248092 -2.198694 -0.4619378 4.066815 4.12125 -0 51.6128 -0 1.835082 4.70898 -5.301935 -5.036378 -8.612039 -7.298501 -0 20.8462 -0 -1.728482 -11.12729 18.1192 -0.0004215911 -0.4542315 6.222492 1.672708 11.44434 -8.596444 0.08537964 23.55925 4.876193 1.084418 -24.234 6.478119 -8.726195 -26.46077 11.75226 99.08455 23.23411 -18.88259 -0 0 15.35241 -21.02017 1.954229 3.691077 2.739666 -22.25401 -4.833873 -88.55839 11.10829 23.71767 0 0 -9.638991 13.22286 13.95276 -11.89586
155.7191 109.6318 3192.349 1.401034 -7.632562 -1.148116 0.08950114 -2.809168 3.72397 -0 52.59337 -0 1.40226 3.860345 -6.488274 -5.189771 -3.168746 -7.577903 -0 18.97685 -0 -1.528183 -12.50241 17.45018 -0.2106872 -0.09757573 6.127256 1.662986 10.65308 -8.689202 -0.2777023 23.86062 5.675528 1.61977 -24.82624 6.719541 -9.266775 -25.90855 11.55715 99.82402 23.95862 -19.55769 -0 0 14.52712 -21.42806 0.4986195 2.827967 3.221249 -22.26671 -4.300071 -88.51045 11.24914 22.7258 0 0 -9.267143 13.42308 13.28864 -13.13092
156.28 110.213 3197.935 1.137434 -7.623323 -0.1185609 0.3867714 -9.311725 3.076057 -0 48.77629 -0 0.8870481 1.900158 -7.236875 -5.151595 1.574316 -7.887463 -0 16.55676 -0 -1.948138 -14.20766 16.58396 -0.4092097 0.2207646 5.984295 1.669306 9.887654 -8.7986 -0.6111742 24.1289 6.456801 2.105901 -25.46569 7.018238 -9.798277 -25.3338 11.39302 100.5944 24.56683 -20.25879 -0 0 13.65748 -21.87617 -0.8186383 2.06142 3.703129 -22.28125 -3.735701 -88.39519 11.37136 21.63994 0 0 -9.077561 13.59647 12.72742 -14.30315
156.7589 110.1882 3203.37 1.046011 -7.249443 0.8300012 0.4030985 -15.04213 2.234155 -0 41.33115 -0 0.5240166 -0.1665046 -7.64465 -5.059903 5.63373 -8.081223 -0 14.33372 -0 -2.702198 -16.10179 15.52358 -0.585759 0.4641117 5.787349 1.706207 9.213006 -8.927635 -0.8775037 24.33972 7.150138 2.491085 -26.11561 7.364442 -10.26575 -24.77737 11.28377 101.3156 24.9874 -20.92545 -0 0 12.798 -22.31222 -1.873667 1.467607 4.139944 -22.29262 -3.175668 -88.20534 11.45391 20.51276 0 0 -9.088317 13.74991 12.34255 -15.34758
157.1507 109.5693 3208.88 1.131029 -6.62242 1.664051 0.2573084 -19.77923 1.372727 -0 32.16926 -0 0.4320621 -1.710876 -7.901452 -5.013865 9.17359 -8.080121 -0 12.97362 -0 -3.511874 -17.92559 14.40744 -0.7342711 0.6076841 5.535045 1.785888 8.678259 -9.078191 -1.049063 24.47529 7.701797 2.740749 -26.74127 7.742751 -10.62045 -24.27038 11.24424 101.9151 25.18307 -21.51203 -0 0 11.99107 -22.67743 -2.583343 1.096466 4.496438 -22.30046 -2.652993 -87.9393 11.4799 19.38856 0 0 -9.307743 13.89848 12.17319 -16.22201
157.4549 108.5075 3214.656 1.32426 -5.90652 2.369809 0.1419363 -23.36398 0.7436985 -0 23.28649 -0 0.5790982 -2.481182 -8.179223 -5.037906 12.3257 -7.894671 -0 12.96114 -0 -4.215718 -19.34049 13.4332 -0.8504131 0.6407163 5.233136 1.914856 8.315978 -9.249168 -1.110044 24.52329 8.07594 2.838809 -27.3087 8.131713 -10.82305 -23.83234 11.27898 102.3396 25.15222 -21.99547 -0 0 11.26585 -22.91337 -2.903851 0.9694262 4.750103 -22.31002 -2.199993 -87.60007 11.43857 18.30417 0 0 -9.749061 14.05819 12.2211 -16.8969
